Coordinates
version=1
nRows=12
nColumns=28
inDegrees=yes

Units are S.I. units (second, meters, Newtons, ...)
Angles are in degrees.

endheader
time	pelvis_tilt	pelvis_list	pelvis_rotation	pelvis_tx	pelvis_ty	pelvis_tz	hip_flexion_r	hip_adduction_r	hip_rotation_r	knee_angle_r	ankle_angle_r	subtalar_angle_r	mtp_angle_r	hip_flexion_l	hip_adduction_l	hip_rotation_l	knee_angle_l	socket_flexion	socket_adduction	socket_rotation	socket_tx	socket_ty	socket_tz	foot_flex	lumbar_extension	lumbar_bending	lumbar_rotation
      0.27083333	     -0.69074975	      3.50214065	      1.35204035	     -0.41533628	      0.98467063	      0.24304118	     15.44402125	     -5.58433729	      3.33983396	    -62.67214077	    -11.59011460	    -14.56763093	     11.70621146	      8.94237013	      6.96264272	      4.94169832	    -18.91669912	      0.00000000	      0.00000000	      0.00000000	      0.00000000	     -0.00792181	      0.00000000	      4.20353316	     -7.94889318	     -6.50177542	     -4.68984262
      0.27500000	     -0.59608142	      3.28518365	      1.39227302	     -0.40975877	      0.98575173	      0.24245651	     16.02255014	     -5.33236764	      3.21930579	    -62.55400759	    -10.64070367	    -15.08207621	     11.49752128	      8.30894525	      6.74287421	      5.00870757	    -18.60761784	      0.00000000	      0.00000000	      0.00000000	      0.00000000	     -0.00780109	      0.00000000	      4.25797555	     -8.02759414	     -6.19872204	     -4.89283152
      0.27916667	     -0.50055427	      3.06782202	      1.42131356	     -0.40414622	      0.98682301	      0.24192744	     16.58365827	     -5.08712127	      3.07546093	    -62.38185897	     -9.78544446	    -15.56869801	     11.23405276	      7.67584920	      6.52030433	      5.08569379	    -18.31034336	      0.00000000	      0.00000000	      0.00000000	      0.00000000	     -0.00766409	      0.00000000	      4.32228437	     -8.11628241	     -5.91553978	     -5.10071829
      0.28333333	     -0.37259839	      2.83052201	      1.47291396	     -0.39864640	      0.98793988	      0.24134537	     17.09051694	     -4.80328646	      2.94066792	    -62.15526178	     -8.91734323	    -16.09441764	     10.81596298	      7.02644116	      6.27704444	      5.17559054	    -18.02719028	      0.00000000	      0.00000000	      0.00000000	      0.00000000	     -0.00753420	      0.00000000	      4.38555117	     -8.25956450	     -5.57996275	     -5.34922796
      0.28750000	     -0.34292808	      2.78387035	      1.53142748	     -0.39349085	      0.98896545	      0.24067669	     17.73912367	     -4.77782135	      2.84075665	    -61.85663630	     -8.75505934	    -16.18299454	     10.78456259	      6.59306470	      6.25987083	      5.18920750	    -17.90335467	      0.00000000	      0.00000000	      0.00000000	      0.00000000	     -0.00690127	      0.00000000	      4.46922914	     -8.37784948	     -5.52088799	     -5.37782382
      0.29166667	     -0.29396626	      2.46505148	      1.55933486	     -0.38740645	      0.98990541	      0.24019139	     18.21317838	     -4.38592200	      2.68284617	    -61.50343393	     -7.34980682	    -16.97744587	     10.50547353	      5.87253764	      5.90697742	      5.29965484	    -17.38931132	      0.00000000	      0.00000000	      0.00000000	      0.00000000	     -0.00707886	      0.00000000	      4.41472136	     -8.29363645	     -5.08723049	     -5.64763516
      0.29583333	      0.04268078	      2.11071468	      1.66764202	     -0.38192874	      0.99134936	      0.23962731	     18.37975077	     -3.91341205	      2.49263380	    -61.06257778	     -6.16079758	    -17.25068399	      5.56344562	      4.98157072	      5.52156841	      5.43192131	    -17.06549401	      0.00000000	      0.00000000	      0.00000000	      0.00000000	     -0.00704040	      0.00000000	      4.50469259	     -8.68945444	     -4.58401682	     -6.07293460
      0.30000000	      0.02287566	      2.01219934	      1.68847314	     -0.37636927	      0.99219686	      0.23909971	     18.99974987	     -3.81196850	      2.37679860	    -60.65037837	     -5.64029840	    -17.51645091	      5.57731020	      4.46757949	      5.42489034	      5.50290759	    -16.73260148	      0.00000000	      0.00000000	      0.00000000	      0.00000000	     -0.00661589	      0.00000000	      4.56217317	     -8.63018677	     -4.45139839	     -6.14815288
      0.30416667	      0.00545217	      1.81296522	      1.74609560	     -0.37077721	      0.99301358	      0.23855477	     19.54394725	     -3.55272043	      2.27354729	    -60.14214279	     -4.80897971	    -17.97135285	      5.56604445	      3.96380866	      5.21624314	      5.55826419	    -16.41995873	      0.00000000	      0.00000000	      0.00000000	      0.00000000	     -0.00640945	      0.00000000	      4.54445496	     -8.59680209	     -4.18605590	     -6.29509112
      0.30833333	      0.21661630	      1.44053696	      1.92282351	     -0.36546839	      0.99421506	      0.23785911	     19.76302520	     -3.09277257	      2.05554948	    -59.45752620	     -4.22156001	    -18.71137542	      4.79428105	      3.27444344	      4.82125385	      5.77233226	    -16.18475394	      0.00000000	      0.00000000	      0.00000000	      0.00000000	     -0.00634401	      0.00000000	      4.56226961	     -8.86609928	     -3.66171160	     -6.82013248
      0.31250000	      0.17332269	      1.37384323	      1.95481116	     -0.35991389	      0.99496178	      0.23733017	     20.32681692	     -3.01553027	      1.96181924	    -58.86081779	     -3.77019499	    -18.94404288	      4.75641772	      2.80893380	      4.75748737	      5.79048774	    -15.88906233	      0.00000000	      0.00000000	      0.00000000	      0.00000000	     -0.00588281	      0.00000000	      4.60944410	     -8.78871888	     -3.57147494	     -6.86287743
      0.31666667	      0.13301011	      1.20991141	      1.99907632	     -0.35440106	      0.99566896	      0.23685979	     20.84917292	     -2.78454115	      1.88339661	    -58.19947750	     -3.08064907	    -19.32173150	      4.68685089	      2.34020672	      4.58210685	      5.84710800	    -15.57947298	      0.00000000	      0.00000000	      0.00000000	      0.00000000	     -0.00561228	      0.00000000	      4.59067437	     -8.72568729	     -3.35895677	     -6.96493337
